<svg xmlns="http://www.w3.org/2000/svg" xmlns:xlink="http://www.w3.org/1999/xlink" viewBox="0 0 545.34 91.22">
  <defs>
    <style>
      .cls-1 {
        fill: url(#Sfumatura_senza_nome_2);
      }

      .cls-2 {
        fill: url(#Sfumatura_senza_nome_2-2);
      }

      .cls-3 {
        fill: #141447;
      }
    </style>
    <linearGradient id="Sfumatura_senza_nome_2" data-name="Sfumatura senza nome 2" x1="48.08" y1="174.31" x2="7.26" y2="66.04" gradientTransform="matrix(1, 0, 0, -1, 0, 174.58)" gradientUnits="userSpaceOnUse">
      <stop offset="0.12" stop-color="#f15a24"/>
      <stop offset="1" stop-color="#ed1e79"/>
    </linearGradient>
    <linearGradient id="Sfumatura_senza_nome_2-2" x1="61.1" y1="177.12" x2="18.37" y2="63.79" xlink:href="#Sfumatura_senza_nome_2"/>
  </defs>
  <g id="Livello_2" data-name="Livello 2">
    <g id="Livello_1-2" data-name="Livello 1">
      <g>
        <g>
          <polygon class="cls-1" points="2.67 91.22 34.61 91.22 2.67 65.47 2.67 91.22"/>
          <path class="cls-2" d="M50.58,71.63s23.85-9.87,23.85-34.42A37.22,37.22,0,0,0,.54,30.87,37.66,37.66,0,0,0,0,37.21a37,37,0,0,0,8.94,24.2,0,0,0,0,0,0,0c.23.27.66.72,1.22,1.28,4.16,4.22,13.53,11.46,13.53,11.46l21.7,17h29L50.58,71.63ZM37.21,20.07A17.12,17.12,0,1,1,20.09,37.19,17.14,17.14,0,0,1,37.21,20.07Z"/>
        </g>
        <g>
          <path class="cls-3" d="M119.52,33.21c9.32,0,14,5.36,14,12,0,4.76-2.6,9.26-8.45,11l8.77,15.06H123.37l-7.91-14.36h-2.22V71.23H104v-38ZM119,40.9h-5.74v9.42H119c3.47,0,5.09-1.79,5.09-4.77C124.07,42.74,122.45,40.9,119,40.9Z"/>
          <path class="cls-3" d="M173.79,64.51H159.6l-2.28,6.72h-9.69l13.75-38h10.73l13.75,38h-9.8Zm-7.1-21.07L162,57.36h9.37Z"/>
          <path class="cls-3" d="M235,52.22c0,11.26-7.8,19-19.93,19H200.86v-38h14.25C227.24,33.21,235,40.9,235,52.22Zm-20.53,11c7,0,11.1-4,11.1-11s-4.11-11.11-11.1-11.11h-4.39v22.1Z"/>
          <path class="cls-3" d="M251.06,33.21h9.26v38h-9.26Z"/>
          <path class="cls-3" d="M295.85,71.6c-10.78,0-19.55-8.07-19.55-19.49s8.77-19.44,19.55-19.44,19.44,8,19.44,19.44A19,19,0,0,1,295.85,71.6Zm0-8.44c6.07,0,10-4.39,10-11s-3.95-11-10-11-10.07,4.28-10.07,11S289.68,63.16,295.85,63.16Z"/>
          <path class="cls-3" d="M348.81,32.77c9.05,0,15.87,5.09,18,13.33H356.67a8.38,8.38,0,0,0-8-4.88c-5.69,0-9.59,4.23-9.59,10.94S343,63.1,348.71,63.1a8.37,8.37,0,0,0,8-4.87h10.18c-2.17,8.23-9,13.27-18,13.27-11.21,0-19.11-8-19.11-19.34S337.6,32.77,348.81,32.77Z"/>
          <path class="cls-3" d="M407,55.57H392.62V71.23h-9.26v-38h9.26V48.1H407V33.21h9.26v38H407Z"/>
          <path class="cls-3" d="M457.45,64.51H443.26L441,71.23h-9.69l13.76-38h10.72l13.76,38h-9.81Zm-7.1-21.07L445.7,57.36h9.37Z"/>
          <path class="cls-3" d="M484.52,33.21h9.27v38h-9.27Z"/>
          <path class="cls-3" d="M545.34,33.21v38h-9.26L520.59,47.78V71.23h-9.26v-38h9.26l15.49,23.56V33.21Z"/>
        </g>
      </g>
    </g>
  </g>
</svg>
