<svg xmlns="http://www.w3.org/2000/svg" xmlns:xlink="http://www.w3.org/1999/xlink" viewBox="0 0 441.36 241.65">
  <defs>
    <style>
      .cls-1 {
        fill: url(#Sfumatura_senza_nome_2);
      }

      .cls-2 {
        fill: url(#Sfumatura_senza_nome_2-2);
      }

      .cls-3 {
        fill: #141447;
      }
    </style>
    <linearGradient id="Sfumatura_senza_nome_2" data-name="Sfumatura senza nome 2" x1="240.59" y1="1361.75" x2="165.8" y2="1163.4" gradientTransform="matrix(1, 0, 0, -1, 0, 1362.24)" gradientUnits="userSpaceOnUse">
      <stop offset="0.12" stop-color="#f15a24"/>
      <stop offset="1" stop-color="#ed1e79"/>
    </linearGradient>
    <linearGradient id="Sfumatura_senza_nome_2-2" x1="264.44" y1="1366.89" x2="186.15" y2="1159.27" xlink:href="#Sfumatura_senza_nome_2"/>
  </defs>
  <g id="Livello_2" data-name="Livello 2">
    <g id="Livello_1-2" data-name="Livello 1">
      <g>
        <g>
          <polygon class="cls-1" points="157.39 167.11 215.92 167.11 157.39 119.94 157.39 167.11"/>
          <path class="cls-2" d="M245.18,131.22s43.68-18.07,43.68-63a68.18,68.18,0,1,0-120,44.32s0,0,0,0c.43.48,1.22,1.31,2.23,2.33,7.62,7.73,24.8,21,24.8,21l39.75,31.19h53.16l-43.68-35.85Zm-24.5-94.45a31.37,31.37,0,1,1-31.36,31.36A31.4,31.4,0,0,1,220.68,36.77Z"/>
        </g>
        <g>
          <path class="cls-3" d="M15.54,203.25c9.32,0,14,5.36,14,12,0,4.77-2.6,9.26-8.45,11l8.77,15.05H19.39l-7.91-14.35H9.26v14.35H0v-38ZM15,210.94H9.26v9.43H15c3.47,0,5.09-1.79,5.09-4.77C20.09,212.78,18.47,210.94,15,210.94Z"/>
          <path class="cls-3" d="M69.81,234.56H55.62l-2.28,6.71H43.65l13.75-38H68.13l13.75,38h-9.8Zm-7.1-21.07-4.66,13.92h9.37Z"/>
          <path class="cls-3" d="M131.06,222.26c0,11.27-7.8,19-19.93,19H96.88v-38h14.25C123.26,203.25,131.06,210.94,131.06,222.26Zm-20.53,11c7,0,11.1-4,11.1-11s-4.11-11.1-11.1-11.1h-4.39v22.1Z"/>
          <path class="cls-3" d="M147.08,203.25h9.27v38h-9.27Z"/>
          <path class="cls-3" d="M191.87,241.65a19.13,19.13,0,0,1-19.55-19.5c0-11.42,8.77-19.44,19.55-19.44s19.44,8,19.44,19.44A19,19,0,0,1,191.87,241.65Zm0-8.45c6.07,0,10-4.38,10-11s-3.95-11-10-11-10.07,4.27-10.07,11S185.7,233.2,191.87,233.2Z"/>
          <path class="cls-3" d="M244.83,202.82c9,0,15.87,5.09,18,13.32H252.69a8.37,8.37,0,0,0-8-4.87c-5.69,0-9.59,4.22-9.59,10.94s3.9,10.94,9.59,10.94a8.38,8.38,0,0,0,8-4.88h10.18c-2.17,8.24-9,13.27-18,13.27-11.21,0-19.11-8-19.11-19.33S233.62,202.82,244.83,202.82Z"/>
          <path class="cls-3" d="M303.05,225.62h-14.4v15.65h-9.27v-38h9.27v14.9h14.4v-14.9h9.26v38h-9.26Z"/>
          <path class="cls-3" d="M353.47,234.56H339.28L337,241.27h-9.69l13.76-38h10.72l13.76,38h-9.81Zm-7.1-21.07-4.65,13.92h9.37Z"/>
          <path class="cls-3" d="M380.54,203.25h9.27v38h-9.27Z"/>
          <path class="cls-3" d="M441.36,203.25v38H432.1l-15.49-23.45v23.45h-9.26v-38h9.26l15.49,23.56V203.25Z"/>
        </g>
      </g>
    </g>
  </g>
</svg>
